# xmcd
#
# Track frame offsets: 
#        150
#        12516
#        29303
#        39690
#        54734
#        71497
#        86446
#        101641
#        120371
#        137147
#        152045
#        170420
#        186928
#        200759
#        218152
#        235821
#        249447
#        264162
#        279285
#        291729
#        308485
#        323607
#        345465
#
# Disc length: 4785 seconds
#
# Revision: 0
# Processed by: cddbd v1.5.2PL0 Copyright (c) Steve Scherf et al.
# Submitted via: ExactAudioCopy v1.1
#
DISCID=4a12af17
DTITLE=Various Artist - VTM 30 - 30 Jaar Muziek - CD 3 - 2009-2018
DYEAR=2019
DGENRE=Pop
TTITLE0=Niels and Wiels - Skwon Meiske
TTITLE1=Stan Van Samang - Goeiemorgend, Goeiendag
TTITLE2=Lost Frequencies - Are You With Me
TTITLE3=Idool 2011 Finalisten - More To Me
TTITLE4=De Pitaboys - Waar Is Da Feestje?
TTITLE5=Kevin - She's Got Moves
TTITLE6=Andy Sierens A.K.A. Vijvenveertig Feat. Hooverphonic - Mijn Le
TTITLE6=ven
TTITLE7=De Vrienden Van Meneer Konijn - Het Meneer Konijn Lied
TTITLE8=Diggy Dex Feat. Eva De Roovere - Slaap Lekker (Fantastig Toch)
TTITLE9=Glenn Claes - The Sound Of Silence
TTITLE10=Kato - Dancing On My Own
TTITLE11=K3 - 10.000 Luchtballonnen
TTITLE12=Zeppe and Zikki - De Zeppe and Zikki Song
TTITLE13=Silke Mastbooms - Awake
TTITLE14=Johannes Genard - Honeybee
TTITLE15=Bazart - Goud
TTITLE16=Hooverphonic - Romantic
TTITLE17=Paulien Mathues - There's Some Place I've Got To Be
TTITLE18=Maarten Cox - Als Ze Me Kust
TTITLE19=Robby Longo - The World
TTITLE20=Nelson - She's Gone
TTITLE21=Dana Winner - Weer Verder Gaan
TTITLE22=Tom Dice - Me And My Guitar
EXTD=
EXTT0=
EXTT1=
EXTT2=
EXTT3=
EXTT4=
EXTT5=
EXTT6=
EXTT7=
EXTT8=
EXTT9=
EXTT10=
EXTT11=
EXTT12=
EXTT13=
EXTT14=
EXTT15=
EXTT16=
EXTT17=
EXTT18=
EXTT19=
EXTT20=
EXTT21=
EXTT22=
PLAYORDER=
